<svg xmlns="http://www.w3.org/2000/svg" version="1.1" xmlns:xlink="http://www.w3.org/1999/xlink" xmlns:svgjs="http://svgjs.dev/svgjs" width="200" height="200" viewBox="0 0 1500 1500"><rect width="1500" height="1500" fill="#000000"></rect><g transform="matrix(0.6666666666666666,0,0,0.6666666666666666,249.1338579080484,512.0410274110991)"><svg viewBox="0 0 123 58" data-background-color="#200b4e" preserveAspectRatio="xMidYMid meet" height="707" width="1500" xmlns="http://www.w3.org/2000/svg" xmlns:xlink="http://www.w3.org/1999/xlink"><g id="tight-bounds" transform="matrix(1,0,0,1,0.10653547731004664,0.2820800781250057)"><svg viewBox="0 0 122.7869290453799 57.435839843749996" height="57.435839843749996" width="122.7869290453799"><g><svg viewBox="0 0 122.7869290453799 57.435839843749996" height="57.435839843749996" width="122.7869290453799"><g><svg viewBox="0 0 122.7869290453799 57.435839843749996" height="57.435839843749996" width="122.7869290453799"><g id="textblocktransform"><svg viewBox="0 0 122.7869290453799 57.435839843749996" height="57.435839843749996" width="122.7869290453799" id="textblock"><g><svg viewBox="0 0 122.7869290453799 57.435839843749996" height="57.435839843749996" width="122.7869290453799"><g><svg><g></g><g></g></svg></g><g><svg><g><svg></svg></g><g></g></svg></g><g id="text-0"><svg viewBox="0 0 122.7869290453799 57.435839843749996" height="57.435839843749996" width="122.7869290453799"><g transform="matrix(1,0,0,1,0,0)"><svg width="79.16191406249999" viewBox="4 -35.01 48.92 35.5" height="57.435839843749996" data-palette-color="#ffffff"><path d="M7.01 0L4 0 4-35.01 7.01-35.01 7.01 0ZM30.22-6.86L30.22-6.86Q30.22-5.35 29.65-4 29.07-2.66 28.07-1.66 27.07-0.66 25.73-0.09 24.39 0.49 22.87 0.49L22.87 0.49 20.87 0.49Q19.36 0.49 18.02-0.09 16.67-0.66 15.67-1.66 14.67-2.66 14.1-4 13.52-5.35 13.52-6.86L13.52-6.86 13.52-18.14Q13.52-19.65 14.1-21 14.67-22.34 15.67-23.34 16.67-24.34 18.02-24.91 19.36-25.49 20.87-25.49L20.87-25.49 22.87-25.49Q24.39-25.49 25.73-24.91 27.07-24.34 28.07-23.34 29.07-22.34 29.65-21 30.22-19.65 30.22-18.14L30.22-18.14 30.22-6.86ZM27.22-6.69L27.22-18.31Q27.22-19.21 26.88-20.01 26.54-20.8 25.95-21.39 25.36-21.97 24.57-22.31 23.78-22.66 22.87-22.66L22.87-22.66 20.87-22.66Q19.97-22.66 19.17-22.31 18.38-21.97 17.8-21.39 17.21-20.8 16.87-20.01 16.53-19.21 16.53-18.31L16.53-18.31 16.53-6.69Q16.53-5.79 16.87-4.99 17.21-4.2 17.8-3.61 18.38-3.03 19.17-2.69 19.97-2.34 20.87-2.34L20.87-2.34 22.87-2.34Q23.78-2.34 24.57-2.69 25.36-3.03 25.95-3.61 26.54-4.2 26.88-4.99 27.22-5.79 27.22-6.69L27.22-6.69ZM52.92 0L51.92 0 50.26-2.54Q49.24-1.15 47.7-0.33 46.16 0.49 44.33 0.49L44.33 0.49 43.57 0.49Q42.06 0.49 40.72-0.09 39.37-0.66 38.37-1.66 37.37-2.66 36.8-4 36.23-5.35 36.23-6.86L36.23-6.86 36.23-25 39.23-25 39.23-6.69Q39.23-5.79 39.57-4.99 39.91-4.2 40.5-3.61 41.08-3.03 41.88-2.69 42.67-2.34 43.57-2.34L43.57-2.34 45.58-2.34Q46.48-2.34 47.27-2.69 48.07-3.03 48.65-3.61 49.24-4.2 49.58-4.99 49.92-5.79 49.92-6.69L49.92-6.69 49.92-25 52.92-25 52.92 0Z" opacity="1" transform="matrix(1,0,0,1,0,0)" fill="#ffffff" class="wordmark-text-0" data-fill-palette-color="primary"></path></svg></g><g><svg xmlns="http://www.w3.org/2000/svg" xmlns:xlink="http://www.w3.org/1999/xlink" version="1.1" x="92.72216796874999" y="0" viewBox="19.68235465832213 3.5 35.57297155366783 67.95874717630606" enable-background="new 0 0 75 75" xml:space="preserve" height="57.435839843749996" width="30.064761076629914" class="icon-dxe-0" data-fill-palette-color="accent" id="dxe-0"><path d="M21.2 59.5C20.1 56.9 17 47.3 25 34.8 36 18 31.7 3.5 31.7 3.5S46 8.8 41.7 37.5C40.7 44 40.8 46.5 43.7 46.9 48.7 47.6 46.8 27.2 46.8 27.2S50.7 29.2 53.6 39.3C55.1 44.6 55.4 48.8 55.2 51.8 54.2 69.9 38.7 71.4 38.7 71.4S26.9 73 21.2 59.5" fill="#ffffff" data-fill-palette-color="accent"></path></svg></g></svg></g></svg></g></svg></g></svg></g><g></g></svg></g><defs></defs></svg><rect width="122.7869290453799" height="57.435839843749996" fill="none" stroke="none" visibility="hidden"></rect></g></svg></g></svg>